<?xml version="1.0" encoding="utf-8"?>
<!-- Generator: Adobe Illustrator 16.0.0, SVG Export Plug-In . SVG Version: 6.00 Build 0)  -->
<!DOCTYPE svg PUBLIC "-//W3C//DTD SVG 1.1//EN" "http://www.w3.org/Graphics/SVG/1.1/DTD/svg11.dtd">
<svg version="1.1" id="图层_1" xmlns="http://www.w3.org/2000/svg" xmlns:xlink="http://www.w3.org/1999/xlink" x="0px" y="0px"
	 width="628px" height="138px" viewBox="0 0 628 138" enable-background="new 0 0 628 138" xml:space="preserve">
<g>
	<path fill-rule="evenodd" clip-rule="evenodd" fill="#FFFFFF" d="M334.628,75.768c0,0,1.24-0.865,1.606-1.415
		c1.018-1.158,1.501-4.545,0.644-4.976c-0.835,0.335-1.295,0.877-1.892,1.599c-0.53,0.832-3.011,4.406-1.774,5.019
		C334.153,76.232,334.628,75.768,334.628,75.768L334.628,75.768z M361.692,40.304c0,0-2.344-0.756-2.99-1.883
		c-0.644-1.127-0.258-3.904,1.01-4.181c1.264-0.277,2.675-1.176,4.001-0.302c1.318,0.875,2.094,1,3.085,2.112
		c0.99,1.119,0.889,2.656,0.249,3.527c-0.651,0.862-2.063,1.681-2.488,1.772c-0.421,0.093-0.397,0.631-0.03,1.154
		c0.366,0.522,0.99,1.115,1.603,1.396c0.608,0.289,0.818,1.125,0.955,2.27c0.141,1.146,0.55,1.634,0.23,2.106
		c-0.32,0.47-0.039,0.922-1.213,1.58c-1.919,1.08-5.756,0.522-7.145-1.271c-0.636-0.817-1.404-0.868-1.45-1.788
		c-0.039-0.915-0.184-1.109,0.394-1.589c0.573-0.483,1.154-0.885,1.903-1.298c0.752-0.414,1.583-0.979,2-1.148
		c0.421-0.166,0.569-0.56,0.733-0.874c0.152-0.31,0.636-0.868,0.117-1.004C362.141,40.752,361.692,40.304,361.692,40.304
		L361.692,40.304z M332.378,34.626c0.74,1.064,3.338,2.607,5.233,1.922c1.887-0.694,4.009-2.258,6.926-3.685
		c2.909-1.432,5.997-2.882,7.546-3.533c1.552-0.644,5.276-3.798,4.621-6.185c-0.644-2.395-2.722-4.465-4.422-4.338
		c-1.35,0.101-15.545,11.42-17.444,12.895C333.665,32.615,331.629,33.551,332.378,34.626L332.378,34.626z M378.215,19.534
		c0,0-3.264,5.284-4.173,5.912c-0.628,0.441-0.593,3.502-0.889,7.322c-0.487,6.376-1.111,14.875-1.463,16.882
		c-0.198,1.129-0.09,1.032-1.021,1.749c-2.804,2.149-11.516,9.083-12.226,9.605c-0.851,0.616-5.515,3.237-7.468,4.009
		c-1.95,0.768,0.113,2.301,0.889,3.061c0.776,0.768,6.154,1.059,7.593-0.093c1.439-1.155,8.97-6.78,9.815-7.78
		c2.263-1.513,1.713,0.69,1.713,0.69c-0.152,8.396-0.547,18.426-0.008,26.764c-0.031,1.08,1.716,3.854,2.909,3.809
		c1.196-0.043,1.501-1.995,1.926-3.93c-0.628-1.724,1.946-32.824,1.946-32.824s5.468-6.126,9.605-9.277
		c4.148-3.163,0.963-5.222,0.187-6.448c-0.776-1.227-3.51-1.063-4.613-0.829c-1.104,0.238-0.133,3.603-0.808,4.449
		c-0.678,0.842-3.186,2.541-3.669,1.997c-1.236-6.915,3.225-16.206,2.89-23.8c-0.035-0.69-0.761-1.585-1.193-1.72
		C379.725,18.941,378.215,19.534,378.215,19.534L378.215,19.534z M343.254,36.529c0,0,1.813,0.468,2.293,1.603
		c0.386,0.924,1.479,5.379,2.882,5.136c1.1-0.191,3.046-0.448,3.314-0.152c1.131,1.322,0.516,3.74,0.301,4.596
		c-1.318,5.122-5.994,9.607-8.404,14.429c-0.624,1.25-1.606,4.052-0.397,4.389c1.213,0.339,2.647-0.023,3.502,0.02
		c0.858,0.051,0.733,1.129,0.168,1.841c-0.562,0.714-1.927,2.34-2.73,3.443c-0.803,1.1-2.203,2.645-2.203,2.645
		c-0.198,4.819-0.343,9.344-0.288,14.214c0,0-1.252,2.574-2.04,2.144c-2.776-0.677-3.935-2.705-3.65-4.938
		c-0.016-1.152,0.457-2.657,0.438-3.122c-0.023-0.464,0.249-2.608-0.589-2.234c-0.745,0.483-2.547,2.164-3.439,3.196
		c-2.157,2.491-3.67,2.638-5.838-0.041c-0.659-1.432-1.868-4.126-0.655-5.63c3.966-4.913,6.988-11.047,9.839-16.478
		c0.869-1.642,2.683-4.295,1.81-4.726c-2.878-1.41-10.089,7.971-12.636,8.891c-1.427,0.515-1.833,1.061-2.636,0.173
		c-0.812-0.887-0.542-2.359,1.01-3.958c1.556-1.585,14.172-13.257,15.033-15.059c0.858-1.796,1.193-2.324,1.065-4.641
		c0.12-2.163-0.074-4.678,1.984-5.437C342.311,36.494,343.254,36.529,343.254,36.529z"/>
	<path fill-rule="evenodd" clip-rule="evenodd" fill="#FFFFFF" d="M603.045,14.977c1.279,0.606,6.248,4.849,2.5,9.515
		c-2.371-1.398-2.469-3.909-7.113-4.194C599.5,18.317,601.768,14.369,603.045,14.977L603.045,14.977z M588.656,82.55
		c0.207-0.07,0.842-1.061,1.691-2.506c2.148-3.67,5.414-10.58,6.697-12.526c2.293-3.882,4.484-7.294,7.186-10.875
		c1.365-1.806,5.928-5.607,6.721-6.805c0.947-0.917,0.346-1.701,0.008-2.049c-4.045-4.116-15.131,8.608-17.779,5.805
		c-0.621-0.659,7.398-5.222,8.564-5.555c1.068-0.345,1.977-0.673,3.061-1.207c1.852-3.221-1.854-4.067-4.273-2.972
		c-1.131,0.485-0.469-0.214,0.182-0.694c4.08-3.473,7.59-6.007,10.779-9.026c2.516-2.381,5.004-3.697,6.541-6.668
		c1.186-2.291,0.459-4.545-2.98-4.586c-1.703,0.049-1.848,0.778-2.359,1.102c-9.402,3.639-18.574,10.697-25.313,16.055
		c-1.721-1.084,0.506-5.409,1.178-7.302c0.568-2.275-0.34-3.609-1.729-3.153c-0.592,1.197-1.182,2.398-1.77,3.599
		c-2.105,4.286-3.113,7.367-5.219,11.653c-0.346,0.915-1.193,2.472-2.27,2.554c-1.311,0.102-3.6-7.603-2.689-9.738
		c3.346-7.866,10.072-13.282,10.373-14.448c-0.641-3.093-1.873-3.11-2.594-3.705c0.258,0.137-21.504,8.938-22.889,11.36
		c0.242,1.927,2.965,2.305,5.92,1.381c2.914-0.909,5.582-1.455,6.037-1.334c1.053-0.136-0.916,11.547,0.789,14.219
		c0.389,2.363-3.445,4.633-4.502,4.498c-2.336,0.404-0.357-3.866-2.85-3.642c-1.006,0.089-2.41,4.841-3.686,11.998
		c-1.883,10.557-2.23,19.563-3.346,28.71c-0.016,3.639,3.307,8.953,6.201,8.644c3.479-9.232,1.727-34.616,2.289-43.063
		c1.977,1.505,8.387-0.948,10.377-2.336c0.451-0.316,0.67,0.057,0.65,1.002c-0.059,2.34-0.406,3.5,1.662,5.019
		c0.518,0.121,2.039-0.148,2.678-1.784c0.543-1.386-0.17-3.145,1.674-5.625c5.689-6.14,14.313-13.068,24.189-16.962
		c0.852-0.337,0.543,0.355,0.074,1.027c-2.402,3.458-4.98,5.624-7.979,9.457c-0.438,0.562-1.135,1.334-1.91,2.002
		c-1.4,1.215-4.559,0.283-5.098,2.008c0.004,3.391,5.432,0.529,4.711,2.479c-0.557,1.513-6.516,4.98-7.449,6.033
		c-1.096,0.991-4.027,8.285,8.066,2.418c-4.758,7.862-14.074,17.42-14.398,20.376c-0.324,2.948,1.291,4.242,2.234,4.905
		C586.592,82.362,587.82,82.834,588.656,82.55L588.656,82.55z M599.084,71.424c0.195,4.363,1.416,6.766,1.809,7.44
		c0.508,0.87,1.623,2.426,3.514,2.991c1.893,0.565,6.754-1.755,8.131-3.762c1.002-1.46,1.256-9.571,1.205-10.478
		c-0.047-0.907,1.51-0.25,2.117,0.152c1.07,1.215,1.201,2.899,1.635,4.026c0.744,2.968,0.701,4.497,1.213,7.166
		c0.756,3.929-13.84,11.748-20.377,6.501c-1.723-3.956-1.484-9.097-1.336-13.043C597.084,71.154,598.381,70.784,599.084,71.424z"/>
	<path fill-rule="evenodd" clip-rule="evenodd" fill="#FFFFFF" d="M290.507,45.849c6.483-0.936,8.862,2.987,10.966,6.513
		c1.145,1.917,1.478,3.334,1.125,4.584c-0.382,1.378-2.363,1.25-4.701,0.622c-1.922-0.519-3.061-1.599-4.824-3.098
		c-2.769-2.332-4.91-4.924-3.697-7.544C289.646,46.773,289.841,46.126,290.507,45.849L290.507,45.849z M256.406,26.612
		c0.71,0.141,1.414,0.281,2.118,0.417c4.118,1.604,6.67,4.344,7.995,9.051c1.214,6.312-0.145,10.938,0.199,19.319
		c1.696,0.745,1.893-0.288,1.776,1.802c-6.083,11.218,0.205,31.269-6.36,29.26c-0.569-0.417-1.135-0.836-1.701-1.252
		c-0.854-2.788-1.696-5.576-2.542-8.362c-0.287,0.138-0.571,0.278-0.848,0.415c-0.928,5.159-2.774,9.694-5.167,13.456
		c-0.573,0.208-3.67,0.782-3.765-0.692c-1.297-1.123-3.452-5.132-3.792-9.418c0.672-0.782,1.347-0.807,1.685-1.728
		c1.571-4.333,0.375-13.454-0.834-16.244c0.423-0.563,0.848-1.115,1.275-1.677c5.908,0.392,5.518,13.431,5.411,13.924
		c-0.098,0.491,1.193,0.129,1.193-0.16c2.326-2.379,4.574-6.625,6.013-12.093c1.26-4.789,1.784-12.035,1.667-16.679
		c-1.23-8.351-3.681-11.36-5.592-18.083C255.56,27.45,255.981,27.029,256.406,26.612L256.406,26.612z M282.603,26.249
		c-0.901,0.055-6.242,28.203-8.377,42.55c0.174,4.591,0.22,6.972,0.457,9.87c1.774,1.085,2.328,1.576,5.598,1.33
		c5.668-5.396,14.548-11.804,13.6-20.489c-0.801-1.053-2.862-1.858-3.892-1.337c-3.514,6.91-9.141,12.715-9.246,11.894
		c-0.189-1.46,11.514-39.906,4.399-43.969C284.299,26.148,283.455,26.202,282.603,26.249z"/>
	<path fill-rule="evenodd" clip-rule="evenodd" fill="#FFFFFF" d="M192.016,65.239c-0.642,0.996-1.422,1.259-1.782,2.223
		c-0.131,0.339,0.043,0.85-0.051,1.408c0.45,0.718,0.897,2.028,1.355,2.746c0.156,0.249,0.318-0.088,0.478,0.169
		c0.101,0,0.203,0,0.306,0c0.115-1.207,0.446-1.998,0.515-2.981c0.078-0.977-0.018-2.309,0.099-3.564
		C192.628,65.239,192.322,65.239,192.016,65.239L192.016,65.239z M189.879,28.16c-0.376,2.714,0.928,2.375,1.525,2.548
		c0.261-0.388,0.372-0.667-0.189-1.726C191.072,28.043,190.238,27.909,189.879,28.16L189.879,28.16z M162.278,27.659
		c1.193-0.287-0.386-1.295,7.677,5.609c0.002,0.285,0.121,0.948,0.179,1.232c-0.074,0.195,0.357,1.053,0.145,1.332
		c-0.292,0.38-3.058,3.66-4.44,5.106c-1.386-0.581-0.642-2.976-1.021-4.605C164.078,32.98,161.943,30.828,162.278,27.659
		L162.278,27.659z M186.821,21.622c0.917,0.107,0.971-0.181,1.798,0.232c3.231,4.146,5.891,4.904,9.002,4.957
		c0.322,0.063,0.796,0.823,1.143,0.901c-0.242,2.042-5.028,8.537-8.885,15.718c-0.714,6.545-1.429,13.083-2.147,19.627
		c0.104,0,0.423,0.045,0.524,0.045c0.412-0.485,1.466-1.31,1.833-1.837c1.18-0.674,1.394-0.992,2.389-1.232
		c0.995-0.246,2.016,0.054,3.518,0.483c0.45,1.105,0.813,1.417,0.915,2.933c-0.094,2.662-0.632,9.301-1.515,13.485
		c-0.433,2.048-1.004,2.541-1.546,3.568c0.111-0.382-0.92,0.64-2.117-1.012c-0.985-1.242-2.514-3.827-3.385-9.525
		c-0.511,0-1.014,0-1.525,0c-0.16,4.079-1.918,5.499-3.367,7.995c-1.669-0.359-1.71-0.894-2.751-1.813
		c-0.031-2.639,0.16-5.047,0.076-7.221c1.47-1.642,3.157-13.893,3.896-21.862c-0.104,0-0.203,0-0.304,0
		c-0.205,0.238-0.41,0.485-0.612,0.728c-1.585,0.963-4.458,4.523-4.912,6.583c0.678,12.07-2.742,18.001-6.708,29.279
		c-1.119,3.058-2.289,10.242-6.123,8.718c-1.338-0.737-2.194-1.917-2.57-3.695c-0.018-0.092-0.064-3.508,0.431-5.288
		c0.866-4.116,1.045-11.847-0.203-17.079c-0.634-2.58-0.622-4.354-0.821-6.421c-0.366-3.849-0.321-4.645-0.321-4.645
		c-0.008-0.121,0.362-0.53,0.351-0.647c0.306-0.031,0.612-0.056,0.917-0.08c1.478,2.396,3.508,5.54,4.298,8.749
		c1.622,6.621-2.673,12.062-0.854,18.208c0.104-0.242,0.203-0.485,0.304-0.729c4.395-4.945,7.802-12.711,9.482-20.593
		c0.119-1.751,0.595-3.328,0.717-5.146c0.082-1.217-0.191-2.636-0.103-3.943c1.324-1.938,2.652-3.872,3.974-5.818
		C185.006,39.118,186.821,31.771,186.821,21.622L186.821,21.622z M219.834,15.273c-4.488,4.725-9.26,9.621-13.749,14.341
		c0,0.363,0,0.725,0,1.094c0,0.119,0,0.242,0,0.363c4.968,2.236,8.854-5.768,12.236-7.997c-1.527,11.629-3.06,23.266-4.588,34.897
		c-0.308,0.244-0.452,0.984-0.92,0.727c-0.464-0.257-1.304-3.391-1.253-4.847c0.53-1.802,1.918-7.051,0.948-11.51
		c-0.93-2.443-2.72-3.404-4.891-4.364c-0.304,0-0.61,0-0.918,0c-0.105,2.114-0.597,4.66-0.881,7.696
		c-1.363,14.472-5.362,36.209-7.462,46.57c-0.285,0.757-0.856,1.154-1.137,1.708c0.103,0.242,0.205,0.483,0.306,0.729
		c1.529,0.36,1.612,0.33,3.434,0.275c4.884-3.887,6.062-25.499,6.659-36.985c0.205,0,0.41,0,0.614,0
		c0.61,1.936,1.113,4.869,1.87,5.645c1.47,2.297,2.111,1.56,2.609,0.864c0.195-0.264,0.548,0.119,1.023,0.031
		c0.511,5.212,1.022,10.418,1.529,15.63c-0.156-0.137-0.318,0.349-0.485,0.18c-1.065-1.071-2.213-3.261-3.249-4.163
		c-0.335-0.289-0.486,0.063-0.852,0.413c0.497,1.896,1.521,5.635,2.788,9.148c1.104,3.048,2.291,5.979,4.577,6.724
		c0.491,0.063,1.895-0.556,2.421-0.669c0.014-7.456-0.996-15.172-1.255-22.833c-0.466-13.83,0.054-27.515,3.086-39.327
		c1.068-4.126,1.587-7.133,0.626-11.497c-0.127-0.109-0.373-1.279-1.595-2.527C220.849,15.35,220.346,15.393,219.834,15.273z"/>
	<path fill-rule="evenodd" clip-rule="evenodd" fill="#FFFFFF" d="M424.414,22.313c2.045,0.988,3.207,2.919,3.514,4.192
		c0.609,2.51-0.541,5.37-0.502,8.601c0.986-0.663,1.93-1.326,2-2.102c0.09-0.975-0.184-2.036-0.27-3.41
		c0.164-0.552,0.793-0.852,1.166-0.834c0.371,0.021,1.533,2.057,2.352,3.1c-1.887,4.662-5.475,9.897-8.525,15.468
		c-0.189,10.219-0.998,21.698-1.184,31.915c-1.208,0.512-2.374,1.299-3.954,1.557c-2.668,0.429-4.649,0.729-7.741,0.636
		c-1.588,3.604-7.835,9.565-8.396,9.436c-0.55-0.119-2.57-2.451-2.659-3.372c-0.234-2.414,0.167-4.297,1.84-5.908
		c5.339-5.112,10.682-10.229,16.017-15.337c0.125-3.365,0.932-12.811,0.932-15.156c0-0.575,0.207-1.94,0.121-2.472
		c-0.121-0.006-1.127,0.778-1.248,0.766c-1.744,0.581-3.401,0.792-4.461,0.749c-0.753-0.183-1.033-0.819-1.86-1.47
		c0.401-0.472,0.804-0.954,1.205-1.432c2.609-2.1,4.808-4.206,7.414-6.31c0.191-2.01,0.854-4.734,1.256-7.741
		c0.615-4.668,1.513-8.954,0.502-9.868C421.093,21.671,423.76,21.995,424.414,22.313L424.414,22.313z M417.856,71.057
		c-0.27-0.272-3.209,2.103-3.916,3.91c-0.223,0.571-0.117,1.405-0.215,2.271c0.355,0.223,1.115-0.043,1.447-0.219
		c1.244-0.791,1.728-1.174,2.406-1.813C417.974,74.294,418.593,70.825,417.856,71.057L417.856,71.057z M452.203,68.072
		c3.771-4.25,7.137-14.158,3.02-17.539c-4.006-2.069-10.24,1.242-13.926,3.473c-0.32-1.414,2.994-11.007,3.283-12.633
		c2.07-1.181,6.326-2.636,13.029-6.298c3.104-1.692,4.355-2.352,4.137-4.161c-1.922-2.917-3.844-3.824-5.029-3.769
		c-3.361,0.829-3.055-0.22-5.137-2.006c-1.623-1.398-1.662-5.854-2.352-5.744c-1.879,0.31-3.674,1.023-4.824,2.075
		c-1.977,5.586-3.393,13.419-3.893,14.823c-4.141,2.328-7.701,4.122-11.328,6.875c-0.184,0.304-0.365,0.622-0.557,0.928
		c0.283,0.573-0.027,1.135,1.061,1.821c1.092,0.688,5.197-1.757,9.047-2.847c-0.559,3.958-1.404,8.954-2.066,12.912
		c-0.148,0.903-0.105,1.494-0.277,2.1c-0.207,0.745,0.379,1.371,1.182,0.685c0.5-0.429,1.443-0.846,2.023-1.174
		c6.283-3.82,11.586-3.837,12.477-1.716c0.275,1.176-2.801,8.186-5.66,10.159l0,0c-5.287-1.115-15.453-0.905-18.418,3.209
		c-0.623,0.87-0.924,1.72,0.238,0.948c2.367-1.601,10.666-1.053,13.969-0.043c-4.063,4.797-14.854,8.186-15.627,6.548
		c-0.311,0.039-0.447,0.109-0.467,0.237c-0.02,0.121,0.074,0.32,0.25,0.61c0.338,0.583,0.916,1.156,1.43,1.375
		c7.055,3.449,16.234-2.473,21.098-6.657c3.227,0.827,8.361,6.029,10.826,9.921c0.811,1.275,2.527,4.762,4.695,4.462
		C471.313,82.542,461.381,71.072,452.203,68.072L452.203,68.072z M449.029,29.654c0.613,0.302,2.094,3.268,3.145,3.958
		c0.076,0.269,0.607,1.287-0.074,1.419c-3.705,1.299-5.648,2.277-6.166,1.946C445.531,36.86,447.404,31.859,449.029,29.654z"/>
	<path fill-rule="evenodd" clip-rule="evenodd" fill="#FFFFFF" d="M488.418,43.88c3.777,2.503,7.67-0.659,11.57-0.581
		c0.365-0.367,0.893-2.379,0.016-2.808c-0.871-0.425-3.811-1.024-4.521-1.236c-0.709-0.203-2.016-0.85-3.107-1.381
		c-1.08-0.538-2.982-2.455-3.584-2.328C483.367,36.708,484.775,41.46,488.418,43.88L488.418,43.88z M507.807,27.435
		c2.82-0.374,4.496,0.983,6.813,2.301c9.461,5.392,25.762-15.918,30.27-0.128c0.445,1.815-3.393,7.511-9.344,9.234
		c-8.4,2.434-16.889,7.378-23.723,11.968c5.367,0.277,7.215,0.351,5.955,4.613c-0.482,1.381-0.678,0.234-2.066,3.171
		c-1.965,2.523-2.23,9.32-2.23,9.32c3.943-0.102,7.148-1.217,10.275,2.01c0.172,2.087-0.227,1.901-2.367,1.944
		c-4.094,0.086-3.393-0.016-6.387,1.117c0.105,1.156,2.854,4.378,2.395,10.155c-0.246,3.028-8.166,4.206-11.809,2.974
		c-5.258-1.784-9.68-9.598-4.057-13.899c1.479-1.125,6.863-2.804,6.953-3.56c0.266-3.818,0.496-8.576,1.736-10.514
		c1.836-2.882-4.824-1.714-5.834,0.092c-4.773,2.092-5.854-0.86-3.74-2.892c0.484-0.874,4.215-2.897,9.027-5.943
		c10.939-6.918,21.598-16.402,21.785-17.174c0.947-1.314,0.748-2.211-0.094-2.289c-1.877-0.178-12.043,3.159-13.855,6.175
		c-0.531,1.246-1.533,2.611-2.707,3.37c-3.947,3.329-7.66-5.809-8.93-8.16C505.076,29.845,506.691,27.587,507.807,27.435
		L507.807,27.435z M508.205,83.02c5.557,0.364,1.174-8.313,0.354-8.246C501.906,75.354,504.344,82.655,508.205,83.02z"/>
</g>
<path fill-rule="evenodd" clip-rule="evenodd" fill="#FFFFFF" d="M68.591,1.509c36.935,0,66.888,29.952,66.888,66.884
	c0,36.935-29.954,66.889-66.888,66.889S1.705,105.328,1.705,68.394C1.705,31.461,31.657,1.509,68.591,1.509L68.591,1.509z
	 M68.591,3.463c-35.854,0-64.931,29.077-64.931,64.931c0,35.856,29.077,64.935,64.931,64.935c35.856,0,64.933-29.078,64.933-64.935
	C133.524,32.54,104.447,3.463,68.591,3.463z"/>
<path fill-rule="evenodd" clip-rule="evenodd" fill="#FFFFFF" d="M68.591,26.624c23.065,0,41.77,18.707,41.77,41.772
	c0,5.926-1.236,11.564-3.463,16.671c-0.029-0.331-0.084-0.666-0.167-1.004c-1.8-7.276-11.146-11.828-15.771-12.959
	c8.292,3.719,8.987,6.189,9.264,6.882c-3.141-2.97-5.76-3.816-6.709-4.12c0.595,0.358,0.821,0.64,1.141,1.064
	c-1.39-0.821-2.258-1.553-3.625-1.919c0.402,0.266,1.084,0.698,0.999,0.804c-0.043,0.051-0.068,0.045-0.012,0.109
	c1.096,0.662,2.666,1.932,3.841,3.213c-4.919-3.334-9.141-5.151-13.126-6.374c0.567,0.252,1.1,0.599,1.669,0.851
	c-0.69,0.165,0.279,0.259,0.657,0.699c-2.149-0.632-4.187-1.798-6.335-2.43c-0.132,0.041-0.193,0.191-0.384,0.395
	c24.118,10.011,13.891,24.564-9.714,23.012c-0.825-0.055-1.671-0.13-2.537-0.229V80.362c12.146-7.117,21.267-20.1,17.892-45.861
	l-17.892,8.443V26.702C66.917,26.653,67.751,26.624,68.591,26.624L68.591,26.624z M66.088,45.748v10.194
	c0.792-0.977,1.696-1.798,2.71-2.465C68.201,50.209,67.252,47.737,66.088,45.748L66.088,45.748z M66.088,110.09V97.922
	c12.222,2.801,24.796,2.648,34.343-2.62c0.096-0.076,0.203-0.16,0.318-0.254c-7.661,9.235-19.224,15.116-32.157,15.116
	C67.751,110.164,66.917,110.139,66.088,110.09L66.088,110.09z M66.088,68.13c0.497-0.599,0.911-1.279,1.201-2.053
	c0.704,0.177,1.41,0.402,2.113,0.963c2.541-1.314,3.235-2.937,4.181-4.516c-2.603,0.468-5.224-0.031-7.495-0.499V68.13L66.088,68.13
	z M66.088,61.397l2.498,0.357c0.061-3.399,1.718-6.113,4.469-8.359c-3.364,0.759-5.643,2.297-6.967,4.522V61.397z M66.088,93.06
	c-6.016-0.696-12.938-2.502-19.756-5.452c6.532-1.497,13.54-3.604,19.756-7.245V93.06L66.088,93.06z M66.088,42.944V26.702
	c-21.901,1.294-39.267,19.469-39.267,41.694c0,2.418,0.208,4.787,0.604,7.094c5.196,4.842,11.327,8.679,17.598,11.535
	c9.786-4.746,16.632-10.244,20.513-16.646c-2.258,1.505-4.239,2.624-6.499,2.892c-2.131,3.199-5.185,5.479-8.314,7.681
	c9.73-13.979-1.135-23.902-10.211-27.653c5.934-2.379,11.869-4.76,17.804-7.141c3.691,5.144,5.175,9.995,5.15,14.642
	c0.668-1.907,1.542-3.527,2.623-4.857V45.748c-0.453-0.774-0.938-1.474-1.447-2.12L66.088,42.944L66.088,42.944z M66.088,57.917
	v3.48l-1.201-0.171C65.111,59.998,65.509,58.892,66.088,57.917L66.088,57.917z M66.088,62.025v6.105
	c-1.925,2.317-5.121,3.409-7.496,3.906c4.114-2.976,5.51-6.189,4.249-7.997c-0.476-0.681-1.416-1.375-2.903-1.659
	C60.969,60.914,63.256,61.444,66.088,62.025L66.088,62.025z M66.088,97.922C50.204,94.28,34.917,85.65,27.664,76.771
	c3.716,18.258,19.351,32.188,38.424,33.319V97.922z"/>
<path fill-rule="evenodd" clip-rule="evenodd" fill="#FFFFFF" d="M52.608,22.722c0,0,0.203-0.275,0.24-0.415
	c0.135-0.316-0.014-1.045-0.23-1.068c-0.156,0.136-0.215,0.282-0.291,0.476c-0.053,0.212-0.322,1.139-0.01,1.166
	C52.538,22.853,52.608,22.722,52.608,22.722L52.608,22.722z M57.842,7.813c0,0,0.283-0.24,0.386-0.244
	c0.103-0.008,0.325,0.117,0.386,0.257c0.636,1.523,0.365,3.771,1.145,5.085c0.145,0.074,0.56-0.472,0.644-0.696
	c0.084-0.226-0.376-0.836-0.156-0.973c0.22-0.133,0.799-0.382,1.059-0.193c0.257,0.189,1.1,0.361,0.439,1.332
	c-0.661,0.969-1.385,2.65-1.385,2.65s1.755,6.551,2.018,6.854c0.053,0.429,0.131,0.85-0.125,0.956
	c-0.253,0.102-0.838-0.328-0.911-0.55c-0.737-1.661-1.396-3.74-1.987-5.466c0,0-0.047-0.493-0.421-0.005
	c-0.109,0.269-1.318,2.012-1.542,2.359c-0.226,0.349-1.408,0.714-1.632,0.616c-0.224-0.093-0.784-0.246-0.421-0.554
	c0.365-0.312,1.178-1.213,1.316-1.408c0.115-0.162,1.48-2.262,1.924-2.921c0.15-0.22,0.133-0.191,0.094-0.437
	c-0.074-0.439-0.571-2.223-0.94-3.563c-0.22-0.805-0.454-1.425-0.353-1.566C57.53,9.149,57.842,7.813,57.842,7.813L57.842,7.813z
	 M55.818,13.353c0,0,0.128,0.057,0.25,0.043c0.123-0.014,0.061,0.137,0.049,0.215c-0.012,0.076-0.014,0.167-0.094,0.234
	c-0.076,0.068-0.214,0.25-0.345,0.394c-0.13,0.143-0.226,0.269-0.316,0.414c-0.087,0.145-0.042,0.171,0.033,0.355
	c0.08,0.185,0.25,0.136,0.447,0.251c0.435,0.257,1.304,0.068,1.638-0.302c0.205-0.226,0.111-0.296,0.145-0.417
	c0.035-0.121-0.09-0.187-0.205-0.413c-0.115-0.223-0.224-0.375-0.376-0.386c-0.154-0.01-0.332-0.082-0.451-0.16
	c-0.117-0.078-0.162-0.188-0.078-0.238c0.086-0.052,0.33-0.331,0.406-0.558c0.074-0.23-0.02-0.55-0.316-0.702
	c-0.296-0.148-0.474-0.113-0.825-0.188c-0.349-0.074-0.589,0.219-0.84,0.376c-0.253,0.156-0.131,0.753,0.091,0.934
	C55.254,13.382,55.818,13.353,55.818,13.353L55.818,13.353z M51.553,14.031c0,0,0.425-0.047,0.614,0.148
	c0.152,0.156,0.72,0.98,1.004,0.821c0.224-0.127,0.626-0.33,0.706-0.291c0.341,0.179,0.388,0.721,0.406,0.913
	c0.098,1.15-0.579,2.433-0.743,3.607c-0.043,0.304-0.047,0.956,0.24,0.928c0.289-0.025,0.571-0.212,0.758-0.271
	c0.189-0.057,0.242,0.174,0.174,0.361c-0.068,0.191-0.242,0.632-0.333,0.92c-0.092,0.287-0.281,0.711-0.281,0.711
	c0.316,1,0.622,1.937,0.994,2.927c0,0-0.08,0.624-0.281,0.597c-0.649,0.08-1.051-0.242-1.154-0.721
	c-0.089-0.234-0.099-0.577-0.138-0.671s-0.141-0.554-0.294-0.41c-0.125,0.156-0.388,0.64-0.505,0.922
	c-0.281,0.679-0.597,0.827-1.263,0.451c-0.25-0.242-0.71-0.696-0.56-1.098c0.491-1.316,0.688-2.806,0.901-4.139
	c0.064-0.402,0.259-1.088,0.039-1.108c-0.727-0.06-1.585,2.422-2.069,2.81c-0.269,0.216-0.315,0.361-0.558,0.244
	c-0.24-0.117-0.291-0.441-0.074-0.889c0.218-0.445,2.075-3.82,2.129-4.254c0.051-0.437,0.082-0.569-0.117-1.034
	c-0.133-0.45-0.363-0.948,0.025-1.266C51.347,14.098,51.553,14.031,51.553,14.031L51.553,14.031z M49.062,14.497
	c0.242,0.16,0.917,0.271,1.275-0.017c0.354-0.291,0.698-0.776,1.222-1.299c0.521-0.521,1.081-1.059,1.367-1.314
	c0.287-0.254,0.858-1.189,0.538-1.626c-0.316-0.437-0.92-0.698-1.277-0.538c-0.285,0.126-2.509,3.553-2.81,4.005
	C49.192,13.984,48.822,14.337,49.062,14.497z"/>
<path fill-rule="evenodd" clip-rule="evenodd" fill="#FFFFFF" d="M124.81,44.25c0.012,0.328-0.291,1.771-1.488,1.388
	c0.031-0.632,0.478-0.877,0.093-1.896C123.874,43.794,124.8,43.923,124.81,44.25L124.81,44.25z M111.235,47.253
	c0.033,0.039,0.273,0.084,0.612,0.137c0.866,0.129,2.422,0.203,2.896,0.302c0.917,0.142,1.739,0.302,2.64,0.556
	c0.455,0.128,1.572,0.76,1.862,0.823c0.253,0.121,0.339-0.078,0.37-0.183c0.365-1.232-2.975-2.453-2.716-3.272
	c0.061-0.191,1.638,1.109,1.808,1.33c0.162,0.195,0.306,0.36,0.505,0.544c0.756,0.105,0.563-0.761,0.136-1.18
	c-0.193-0.197-0.004-0.119,0.145-0.023c1.01,0.558,1.798,1.08,2.644,1.49c0.665,0.324,1.137,0.735,1.817,0.795
	c0.526,0.047,0.868-0.31,0.552-1.049c-0.17-0.359-0.314-0.324-0.421-0.402c-1.541-1.681-3.677-3.003-5.278-3.958
	c0.035-0.466,1.026-0.378,1.433-0.405c0.464-0.084,0.62-0.398,0.408-0.653c-0.271-0.018-0.544-0.037-0.817-0.053
	c-0.973-0.066-1.625-0.004-2.597-0.066c-0.199,0.008-0.56-0.035-0.675-0.257c-0.143-0.269,1.037-1.451,1.509-1.447
	c1.737,0.004,3.348,0.956,3.585,0.913c0.5-0.413,0.388-0.678,0.427-0.885c0,0.066-3.633-3.785-4.2-3.863
	c-0.326,0.225-0.138,0.84,0.306,1.387c0.437,0.54,0.786,1.061,0.806,1.17c0.125,0.21-2.174,0.842-2.498,1.447
	c-0.392,0.292-1.162-0.32-1.236-0.558c-0.292-0.462,0.667-0.423,0.392-0.936c-0.111-0.207-1.102-0.078-2.515,0.292
	c-2.088,0.546-3.75,1.283-5.509,1.866c-0.661,0.322-1.31,1.511-0.982,2.1c1.997-0.088,6.425-2.741,8.006-3.381
	c-0.087,0.558,0.958,1.704,1.395,2.004c0.099,0.066,0.052,0.148-0.119,0.228c-0.429,0.197-0.671,0.228-0.752,0.805
	c0.027,0.121,0.218,0.421,0.573,0.412c0.302-0.01,0.554-0.318,1.174-0.148c1.646,0.661,3.707,1.88,5.338,3.637
	c0.141,0.152-0.014,0.148-0.179,0.109c-0.85-0.203-1.484-0.558-2.459-0.854c-0.142-0.043-0.349-0.121-0.542-0.227
	c-0.351-0.191-0.478-0.947-0.84-0.909c-0.614,0.307,0.414,1.209-0.008,1.229c-0.326,0.018-1.511-0.943-1.79-1.047
	c-0.281-0.145-1.875-0.115,0.32,1.94c-1.87-0.31-4.473-1.439-5.037-1.244c-0.563,0.199-0.647,0.659-0.678,0.918
	C111.077,46.797,111.106,47.101,111.235,47.253L111.235,47.253z M114.226,48.478c-0.771,0.433-1.092,0.911-1.176,1.055
	c-0.111,0.187-0.287,0.563-0.212,1.02c0.076,0.453,0.951,1.283,1.443,1.396c0.358,0.082,1.85-0.593,2.008-0.684
	c0.16-0.092,0.187,0.298,0.171,0.466c-0.119,0.335-0.411,0.515-0.575,0.71c-0.468,0.425-0.747,0.554-1.184,0.905
	c-0.64,0.513-3.422-1.899-3.084-3.766c0.554-0.723,1.505-1.133,2.234-1.458C114.087,48.027,114.277,48.271,114.226,48.478z"/>
<path fill-rule="evenodd" clip-rule="evenodd" fill="#FFFFFF" d="M36.267,23.217c0.905-1.122,1.868-0.852,2.728-0.608
	c0.468,0.134,0.731,0.31,0.86,0.56c0.143,0.277-0.195,0.554-0.663,0.803c-0.386,0.207-0.729,0.205-1.234,0.23
	c-0.79,0.045-1.519-0.046-1.714-0.643C36.267,23.494,36.2,23.361,36.267,23.217L36.267,23.217z M27.937,25.271
	c0.137-0.086,0.269-0.168,0.402-0.252c0.901-0.36,1.716-0.31,2.625,0.24c1.131,0.823,1.599,1.761,2.897,3.042
	c0.382-0.136,0.261-0.33,0.552,0.02c0.685,2.695,4.666,4.939,3.313,5.604c-0.152,0.018-0.304,0.035-0.457,0.055
	c-0.55-0.316-1.1-0.632-1.649-0.948c-0.025,0.064-0.051,0.129-0.074,0.193c0.616,0.959,0.991,1.956,1.164,2.911
	c-0.061,0.121-0.474,0.675-0.708,0.457c-0.375,0.016-1.314-0.3-2.005-0.928c-0.008-0.226,0.098-0.332,0.014-0.528
	c-0.388-0.922-1.932-2.194-2.541-2.455c-0.016-0.154-0.029-0.306-0.043-0.458c1.006-0.825,2.874,1.308,2.933,1.402
	c0.057,0.092,0.211-0.16,0.168-0.205c0.02-0.728-0.248-1.737-0.827-2.822c-0.507-0.951-1.498-2.18-2.204-2.901
	c-1.435-1.143-2.275-1.255-3.578-2.036C27.925,25.53,27.931,25.399,27.937,25.271L27.937,25.271z M32.092,21.287
	c-0.135,0.145,3.176,5.417,4.96,8.016c0.708,0.706,1.068,1.076,1.535,1.501c0.446-0.094,0.608-0.098,1.098-0.628
	c0.111-1.706,0.589-4.056-0.852-5.294c-0.285-0.047-0.735,0.134-0.823,0.373c0.46,1.622,0.415,3.389,0.277,3.275
	c-0.246-0.205-4.063-8.068-5.809-7.647C32.351,21.016,32.223,21.152,32.092,21.287z"/>
<path fill-rule="evenodd" clip-rule="evenodd" fill="#FFFFFF" d="M21.436,45.96c0.098,0.236,0.051,0.423,0.176,0.599
	c0.045,0.061,0.156,0.078,0.244,0.152c0.181-0.02,0.466,0.02,0.646-0.004c0.064-0.004,0.023-0.074,0.09-0.082
	c0.012-0.019,0.023-0.041,0.035-0.062c-0.199-0.148-0.296-0.296-0.464-0.41c-0.162-0.117-0.41-0.234-0.616-0.386
	C21.51,45.833,21.471,45.896,21.436,45.96L21.436,45.96z M14.643,42.632c0.433,0.355,0.53,0.049,0.632-0.059
	c-0.035-0.093-0.072-0.144-0.326-0.136C14.765,42.371,14.643,42.533,14.643,42.632L14.643,42.632z M11.232,48.333
	c0.094-0.277-0.275-0.051,1.913-1.028c0.051,0.029,0.181,0.072,0.238,0.088c0.027,0.035,0.23,0.033,0.253,0.105
	c0.031,0.099,0.277,1.01,0.367,1.447c-0.269,0.228-0.604-0.172-0.936-0.257C12.386,48.501,11.751,48.727,11.232,48.333
	L11.232,48.333z M13.122,42.604c0.129-0.179,0.086-0.222,0.257-0.351c1.119-0.254,1.574-0.729,1.958-1.373
	c0.049-0.061,0.24-0.082,0.296-0.146c0.332,0.259,0.899,1.917,1.701,3.451c1.068,0.815,2.135,1.628,3.202,2.445
	c0.012-0.021,0.058-0.083,0.07-0.103c-0.035-0.137-0.055-0.441-0.101-0.569c0.023-0.316-0.008-0.394,0.07-0.624
	c0.074-0.234,0.252-0.414,0.507-0.685c0.25,0.018,0.349-0.025,0.628,0.107c0.458,0.291,1.563,1.078,2.195,1.688
	c0.308,0.3,0.326,0.468,0.441,0.687c-0.053-0.063,0.004,0.257-0.433,0.337c-0.335,0.08-0.975,0.134-2.086-0.263
	c-0.063,0.105-0.121,0.21-0.183,0.318c0.702,0.448,0.739,0.959,1.004,1.515c-0.263,0.312-0.362,0.265-0.649,0.39
	c-0.47-0.261-0.872-0.548-1.264-0.75c-0.113-0.474-2.071-2.073-3.385-3.036c-0.011,0.02-0.025,0.041-0.037,0.063
	c0.018,0.066,0.035,0.134,0.054,0.201c-0.021,0.429,0.26,1.39,0.569,1.694c2.209,1.086,2.843,2.402,4.354,4.377
	c0.403,0.544,1.528,1.519,0.799,2.163c-0.292,0.205-0.603,0.263-0.961,0.16c-0.018-0.004-0.626-0.343-0.879-0.628
	c-0.622-0.599-1.963-1.423-3.036-1.694c-0.53-0.13-0.842-0.314-1.23-0.481c-0.722-0.316-0.858-0.406-0.858-0.406
	c-0.021-0.012-0.051-0.13-0.07-0.14c0.031-0.066,0.063-0.133,0.094-0.199c0.601-0.066,1.4-0.167,2.061-0.004
	c1.363,0.333,1.803,1.782,3.106,2.028c-0.031-0.045-0.061-0.09-0.092-0.137c-0.341-1.419-1.3-2.921-2.49-4.071
	c-0.292-0.203-0.513-0.464-0.819-0.675c-0.205-0.14-0.488-0.228-0.708-0.378c-0.181-0.474-0.365-0.948-0.548-1.42
	C15.988,44.763,14.912,43.638,13.122,42.604L13.122,42.604z M15.976,35.076c0.082-0.096,0.137-0.203,0.234-0.279
	c0.369-0.126,0.604-0.059,0.64-0.074c0.885,0.244,1.352,0.659,1.95,1.301c1.716,1.834,4.068,3.336,6.56,4.646
	c1.384,0.725,2.864,1.298,4.177,2.059c-0.043,0.123-0.104,0.478-0.174,0.573c-0.405,0.401-1.064,0.351-1.735,0.271
	c-0.772-0.094-1.554-0.261-1.948-0.349c-0.02-0.113-0.063-0.179,0.029-0.222c0.283-0.121,0.809-0.141,1.125-0.251
	c0.051-0.018-0.016-0.1,0.027-0.119c-0.981-0.425-1.959-0.85-2.94-1.271c-0.041,0.105-0.152,0.14-0.129,0.208
	c0.063,0.175,0.117,0.384-0.464,0.456c-0.23,0.08-0.807-0.115-1.221-0.185c-0.025,0.043-0.051,0.086-0.074,0.128
	c1.952,1.293,5.62,3.74,5.717,5.152c-0.21,0.386-0.214,0.406-0.46,0.688c-0.056-0.004-0.113-0.008-0.167-0.01
	c-0.063-0.117-0.066-0.276-0.164-0.411c-1.574-1.492-4.924-4.539-7.31-6.296c-0.501-0.367-0.891-0.729-1.25-0.967
	c0.035-0.063,0.074-0.127,0.109-0.191c0.431-0.355,0.815-0.628,1.357-0.574c0.905,0.25,1.661,1.073,1.915,1.369
	c0.251,0.158,0.905,0.3,1.006,0.23c0.101-0.07-0.012-0.176-0.018-0.265c-1.866-1.501-3.732-3.007-5.598-4.508
	c-0.016,0.932,0.928,2.557-0.063,3.366c-0.023-0.012-0.043-0.025-0.066-0.039c-0.063-0.035-0.129-0.074-0.191-0.109
	C16.557,37.987,16.269,36.494,15.976,35.076z"/>
<path fill-rule="evenodd" clip-rule="evenodd" fill="#FFFFFF" d="M80.546,9.32c0.39,0.328,0.534,0.8,0.528,1.084
	c-0.008,0.564-0.419,1.096-0.593,1.778c0.251-0.082,0.494-0.167,0.554-0.325c0.074-0.201,0.074-0.439,0.133-0.731
	c0.066-0.105,0.22-0.133,0.3-0.109c0.08,0.027,0.218,0.523,0.337,0.79c-0.673,0.868-1.747,1.757-2.724,2.749
	c-0.616,2.135-1.437,4.497-2.051,6.63c-0.292,0.037-0.589,0.134-0.948,0.095c-0.604-0.064-1.051-0.117-1.718-0.316
	c-0.548,0.663-2.242,1.552-2.355,1.49c-0.113-0.056-0.421-0.663-0.39-0.862c0.085-0.519,0.279-0.893,0.733-1.131
	c1.447-0.764,2.897-1.525,4.344-2.289c0.217-0.698,0.922-2.632,1.055-3.125c0.033-0.121,0.154-0.396,0.166-0.513
	c-0.027-0.008-0.289,0.098-0.316,0.09c-0.411,0.02-0.784-0.033-1.01-0.104c-0.154-0.082-0.18-0.232-0.324-0.415
	c0.115-0.078,0.23-0.156,0.343-0.232c0.684-0.289,1.281-0.603,1.967-0.891c0.154-0.414,0.45-0.946,0.708-1.552
	c0.396-0.944,0.833-1.792,0.663-2.043C79.862,8.993,80.421,9.215,80.546,9.32L80.546,9.32z M76.379,19.169
	c-0.042-0.072-0.815,0.256-1.07,0.595c-0.08,0.105-0.105,0.287-0.173,0.464c0.064,0.066,0.244,0.055,0.326,0.037
	c0.315-0.094,0.442-0.146,0.625-0.24C76.223,19.857,76.553,19.163,76.379,19.169L76.379,19.169z M84.779,20.749
	c1.059-0.673,2.348-2.556,1.642-3.504c-0.752-0.669-2.295-0.335-3.221-0.082c0.01-0.316,1.27-2.137,1.425-2.46
	c0.515-0.129,1.523-0.188,3.184-0.563c0.771-0.174,1.081-0.24,1.135-0.634c-0.255-0.722-0.62-1.026-0.881-1.084
	c-0.778-0.02-0.653-0.223-1.004-0.718c-0.275-0.39-0.031-1.326-0.187-1.345c-0.427-0.043-0.856,0.002-1.166,0.156
	c-0.745,1.057-1.492,2.619-1.679,2.884c-1.031,0.248-1.907,0.416-2.851,0.784c-0.057,0.052-0.115,0.109-0.173,0.162
	c0.031,0.137-0.068,0.238,0.128,0.445c0.199,0.207,1.229-0.066,2.127-0.07c-0.345,0.795-0.809,1.798-1.176,2.589
	c-0.084,0.179-0.107,0.306-0.18,0.425c-0.085,0.144,0.006,0.308,0.219,0.21c0.134-0.061,0.363-0.094,0.507-0.129
	c1.58-0.435,2.734-0.128,2.808,0.367c-0.006,0.265-1.068,1.556-1.801,1.804l0,0c-1.086-0.542-3.309-1.09-4.185-0.4
	c-0.183,0.146-0.296,0.308,0,0.214c0.604-0.199,2.377,0.398,3.038,0.804c-1.152,0.77-3.689,0.854-3.765,0.464
	c-0.07-0.01-0.103-0.004-0.115,0.023c-0.012,0.023-0.002,0.07,0.02,0.141c0.043,0.144,0.134,0.296,0.234,0.374
	c1.341,1.135,3.667,0.425,4.96-0.169c0.655,0.361,1.478,1.753,1.796,2.712c0.105,0.315,0.283,1.146,0.77,1.21
	C88.119,24.9,86.604,21.913,84.779,20.749L84.779,20.749z M86.838,11.838c0.115,0.099,0.271,0.809,0.46,1.014
	c0.002,0.061,0.061,0.306-0.096,0.294c-0.877,0.055-1.357,0.148-1.449,0.049C85.672,13.146,86.36,12.206,86.838,11.838z"/>
<path fill-rule="evenodd" clip-rule="evenodd" fill="#FFFFFF" d="M100.064,22.716c0.285,0.95,1.383,0.971,2.028,1.537
	c0.111-0.01,0.482-0.269,0.396-0.466c-0.088-0.193-0.499-0.708-0.589-0.844c-0.092-0.133-0.22-0.425-0.332-0.667
	c-0.105-0.244-0.158-0.831-0.277-0.895C100.216,20.807,99.789,21.798,100.064,22.716L100.064,22.716z M105.623,22.716
	c0.527,0.335,0.62,0.8,0.825,1.346c0.841,2.232,6.56,0.986,5.113,4.252c-0.177,0.365-1.62,0.771-2.862,0.216
	c-1.753-0.78-3.873-1.154-5.665-1.357c0.864,0.803,1.166,1.077,0.359,1.611c-0.275,0.16-0.146-0.059-0.79,0.234
	c-0.685,0.144-1.679,1.236-1.679,1.236c0.679,0.54,1.373,0.807,1.449,1.786c-0.261,0.373-0.302,0.285-0.668-0.012
	c-0.702-0.562-0.569-0.479-1.232-0.713c-0.145,0.207-0.131,1.131-1.016,2.028c-0.464,0.468-1.961-0.452-2.4-1.174
	c-0.638-1.037-0.291-2.964,1.257-2.886c0.406,0.023,1.546,0.503,1.667,0.39c0.577-0.599,1.281-1.357,1.761-1.505
	c0.711-0.221-0.573-0.967-0.995-0.81c-1.096-0.325-0.866-0.969-0.226-1.008c0.203-0.078,1.115,0.113,2.35,0.285
	c2.808,0.394,5.925,0.32,6.064,0.218c0.345-0.086,0.437-0.263,0.304-0.394c-0.291-0.296-2.467-1.176-3.194-0.93
	c-0.263,0.132-0.622,0.218-0.926,0.177c-1.129-0.002-0.478-2.047-0.363-2.617C104.828,22.731,105.415,22.583,105.623,22.716
	L105.623,22.716z M97.927,32.024c0.885,0.847,1.359-1.218,1.211-1.322C97.937,29.858,97.329,31.418,97.927,32.024z"/>
<path fill-rule="evenodd" clip-rule="evenodd" fill="#FFFFFF" d="M68.591,25.933c23.449,0,42.464,19.015,42.464,42.46
	c0,23.449-19.015,42.464-42.464,42.464c-23.447,0-42.464-19.015-42.464-42.464C26.127,44.948,45.144,25.933,68.591,25.933
	L68.591,25.933z M68.591,25.079c-23.917,0-43.314,19.397-43.314,43.314c0,23.921,19.397,43.316,43.314,43.316
	c23.919,0,43.316-19.396,43.316-43.316C111.908,44.477,92.51,25.079,68.591,25.079z"/>
<polygon fill="#FFFFFF" points="11.478,64.87 11.573,63.788 14.178,64.018 14.381,61.725 11.772,61.497 11.868,60.415 
	17.872,60.941 17.776,62.021 15.309,61.807 15.106,64.1 17.575,64.314 17.481,65.395 11.478,64.87 "/>
<path fill="#FFFFFF" d="M17.3,70.459l-3.871-0.135c-0.522-0.02-0.924-0.09-1.201-0.219c-0.281-0.129-0.515-0.364-0.708-0.708
	c-0.193-0.345-0.281-0.758-0.263-1.244c0.016-0.492,0.121-0.891,0.306-1.201c0.189-0.31,0.439-0.528,0.751-0.657
	c0.312-0.128,0.706-0.183,1.184-0.167l3.948,0.138l-0.039,1.11l-3.868-0.137c-0.531-0.02-0.881,0.08-1.057,0.296
	c-0.173,0.216-0.265,0.472-0.277,0.766c-0.012,0.337,0.068,0.61,0.242,0.821c0.17,0.21,0.507,0.321,1.014,0.339l3.869,0.137
	L17.3,70.459L17.3,70.459z"/>
<path fill="#FFFFFF" d="M17.415,70.937l-6.011,0.421l0.185,2.628c0.043,0.632,0.234,1.089,0.569,1.371
	c0.339,0.283,0.737,0.407,1.203,0.374c0.369-0.025,0.681-0.157,0.936-0.394c0.255-0.235,0.404-0.567,0.448-0.996
	c0.092,0.335,0.267,0.593,0.525,0.769c0.259,0.175,0.554,0.253,0.885,0.229c0.353-0.023,0.653-0.141,0.9-0.351
	c0.25-0.207,0.406-0.447,0.468-0.714c0.066-0.268,0.082-0.597,0.055-0.994L17.415,70.937z M14.011,74.315
	c-0.152,0.186-0.351,0.286-0.604,0.304c-0.263,0.018-0.479-0.053-0.647-0.212c-0.167-0.16-0.261-0.391-0.281-0.687l-0.1-1.4
	l1.726-0.121l0.097,1.404C14.223,73.893,14.159,74.13,14.011,74.315z M16.567,73.967c-0.119,0.187-0.314,0.292-0.591,0.312
	c-0.25,0.016-0.46-0.047-0.634-0.195c-0.171-0.144-0.267-0.351-0.287-0.624l-0.093-1.319l1.667-0.117l0.092,1.301
	C16.737,73.563,16.686,73.777,16.567,73.967z"/>
<polygon fill="#FFFFFF" points="12.556,80.553 13.48,80.404 13.036,77.612 14.701,77.348 15.052,79.563 15.916,79.426 
	15.567,77.211 17.177,76.955 17.616,79.711 18.501,79.57 17.895,75.74 11.944,76.685 12.556,80.553 "/>
<polygon fill="#FFFFFF" points="13.067,82.347 12.823,81.286 18.694,79.931 18.94,80.989 13.067,82.347 "/>
<path fill="#FFFFFF" d="M21.451,88.568l-3.615,1.389c-0.492,0.189-0.889,0.279-1.193,0.268c-0.308-0.008-0.616-0.133-0.928-0.375
	c-0.312-0.241-0.554-0.589-0.729-1.041c-0.176-0.46-0.238-0.867-0.188-1.227c0.053-0.356,0.199-0.657,0.435-0.898
	c0.236-0.238,0.579-0.445,1.023-0.614l3.689-1.418l0.397,1.037l-3.615,1.389c-0.496,0.188-0.78,0.415-0.854,0.683
	c-0.078,0.269-0.063,0.54,0.042,0.814c0.121,0.316,0.3,0.535,0.542,0.661c0.238,0.127,0.594,0.098,1.066-0.083l3.615-1.389
	L21.451,88.568L21.451,88.568z"/>
<path fill="#FFFFFF" d="M18.283,95.777l5.37-2.737l-0.388-0.761l-3.742,1.903c0.25-0.394,0.384-0.608,0.404-0.636l2.203-3.492
	l-0.544-1.07l-5.37,2.735l0.398,0.78l3.933-2.003c-0.078,0.121-0.137,0.213-0.174,0.27c-0.082,0.132-0.14,0.226-0.177,0.284
	l-2.391,3.787L18.283,95.777L18.283,95.777z"/>
<polygon fill="#FFFFFF" points="19.435,97.813 18.909,96.863 24.179,93.94 24.708,94.893 19.435,97.813 "/>
<polygon fill="#FFFFFF" points="21.366,100.711 20.781,99.774 24.907,95.006 25.513,95.977 22.329,99.596 26.995,98.348 
	27.473,99.115 21.366,100.711 "/>
<polygon fill="#FFFFFF" points="25.191,105.858 25.928,105.283 24.187,103.055 25.515,102.016 26.896,103.783 27.585,103.245 
	26.205,101.477 27.492,100.473 29.21,102.67 29.916,102.118 27.529,99.063 22.781,102.773 25.191,105.858 "/>
<path fill="#FFFFFF" d="M32.02,104.154l-1.782-1.911l-4.407,4.11l0.741,0.794l1.81-1.69l1.043,1.119l-1.174,2.373l0.782,0.84
	l1.229-2.589c0.706,0.331,1.344,0.233,1.909-0.295c0.38-0.356,0.575-0.771,0.583-1.242C32.761,105.189,32.515,104.687,32.02,104.154
	z M31.409,106.069c-0.21,0.196-0.442,0.282-0.692,0.253c-0.253-0.025-0.511-0.184-0.776-0.468l-0.924-0.99l1.328-1.236l0.981,1.053
	c0.232,0.247,0.353,0.495,0.36,0.745C31.696,105.675,31.603,105.89,31.409,106.069z"/>
<path fill="#FFFFFF" d="M30.226,108.951c-0.238,0.497-0.265,0.986-0.091,1.47c0.173,0.483,0.485,0.923,0.938,1.314
	c0.535,0.464,1.083,0.716,1.642,0.751c0.56,0.037,1.033-0.17,1.421-0.614c0.242-0.279,0.382-0.601,0.423-0.972
	c0.039-0.37-0.125-0.816-0.492-1.341l-0.604-0.866c-0.332-0.472-0.382-0.834-0.158-1.096c0.144-0.164,0.33-0.242,0.556-0.23
	c0.226,0.008,0.468,0.125,0.721,0.348c0.441,0.382,0.572,0.799,0.392,1.248l0.948,0.483c0.189-0.387,0.203-0.8,0.045-1.236
	c-0.16-0.44-0.435-0.831-0.827-1.17c-0.47-0.409-0.963-0.622-1.478-0.64c-0.517-0.016-0.952,0.18-1.305,0.585
	c-0.177,0.203-0.302,0.433-0.373,0.687c-0.07,0.253-0.078,0.495-0.021,0.718c0.057,0.222,0.199,0.501,0.431,0.836l0.671,0.982
	c0.181,0.264,0.261,0.479,0.242,0.646c-0.023,0.168-0.086,0.313-0.195,0.438c-0.148,0.171-0.351,0.247-0.608,0.226
	c-0.258-0.02-0.531-0.157-0.819-0.409c-0.639-0.554-0.811-1.1-0.515-1.632L30.226,108.951L30.226,108.951z"/>
<polygon fill="#FFFFFF" points="34.469,114.383 33.626,113.701 37.417,109.018 38.263,109.699 34.469,114.383 "/>
<polygon fill="#FFFFFF" points="37.171,116.237 39.948,111.965 41.29,112.837 41.798,112.055 38.134,109.676 37.625,110.456 
	38.969,111.33 36.194,115.604 37.171,116.237 "/>
<polygon fill="#FFFFFF" points="41.422,118.806 40.423,118.229 41.695,116.025 41.658,111.982 42.798,112.64 42.794,115.508 
	45.22,114.04 46.125,114.563 42.693,116.602 41.422,118.806 "/>
<path fill="#FFFFFF" d="M52.517,118c-0.201-0.72-0.663-1.223-1.39-1.517c-0.72-0.291-1.41-0.252-2.071,0.118
	c-0.661,0.369-1.152,0.96-1.484,1.775c-0.33,0.818-0.402,1.587-0.214,2.313c0.191,0.723,0.655,1.235,1.398,1.536
	c0.724,0.292,1.41,0.261,2.065-0.094c0.651-0.353,1.15-0.963,1.5-1.825C52.651,119.488,52.717,118.716,52.517,118z M51.23,119.858
	c-0.318,0.788-0.663,1.283-1.038,1.481c-0.373,0.199-0.737,0.223-1.102,0.078c-0.41-0.167-0.653-0.468-0.731-0.902
	c-0.082-0.438,0.016-0.992,0.289-1.667c0.562-1.389,1.271-1.909,2.135-1.561c0.437,0.176,0.685,0.487,0.745,0.937
	C51.588,118.673,51.491,119.217,51.23,119.858z"/>
<polygon fill="#FFFFFF" points="53.146,123.478 53.889,121.046 55.917,121.664 56.181,120.8 54.155,120.182 54.636,118.606 
	57.212,119.393 57.483,118.501 53.839,117.388 52.076,123.149 53.146,123.478 "/>
<path fill="#FFFFFF" d="M59.357,123.423l1.076-0.076c0.041,0.61,0.481,0.973,1.318,1.09c0.38,0.053,0.684,0.02,0.912-0.105
	c0.227-0.12,0.355-0.294,0.386-0.519c0.023-0.164-0.002-0.319-0.076-0.472c-0.074-0.152-0.259-0.288-0.554-0.409l-1.098-0.461
	c-0.376-0.155-0.647-0.312-0.817-0.468c-0.168-0.155-0.292-0.358-0.373-0.612c-0.078-0.249-0.1-0.511-0.063-0.779
	c0.076-0.532,0.335-0.933,0.776-1.199c0.442-0.268,0.971-0.357,1.589-0.271c0.513,0.074,0.956,0.252,1.328,0.532
	c0.372,0.279,0.587,0.634,0.637,1.063l-1.059,0.109c-0.094-0.476-0.429-0.752-1.006-0.834c-0.335-0.047-0.601-0.012-0.796,0.103
	c-0.197,0.115-0.31,0.279-0.339,0.498c-0.048,0.339,0.195,0.616,0.729,0.832l0.979,0.396c0.593,0.239,0.973,0.526,1.141,0.857
	c0.167,0.332,0.226,0.679,0.173,1.045c-0.082,0.583-0.369,1.015-0.856,1.289c-0.489,0.275-1.084,0.364-1.788,0.264
	c-0.591-0.082-1.092-0.277-1.501-0.589C59.669,124.394,59.427,123.969,59.357,123.423L59.357,123.423z"/>
<path fill="#FFFFFF" d="M68.262,123.538l1.002,0.146c-0.086,0.601-0.337,1.091-0.753,1.465c-0.413,0.376-0.947,0.554-1.603,0.53
	c-0.548-0.018-0.991-0.174-1.324-0.462c-0.333-0.289-0.583-0.671-0.752-1.154c-0.167-0.478-0.242-1.003-0.222-1.576
	c0.033-0.916,0.275-1.655,0.731-2.215c0.455-0.562,1.065-0.826,1.827-0.799c0.595,0.02,1.086,0.222,1.47,0.604
	c0.384,0.38,0.616,0.914,0.696,1.603l-1.01,0.072c-0.154-0.915-0.548-1.383-1.18-1.406c-0.406-0.014-0.727,0.164-0.965,0.534
	c-0.238,0.371-0.37,0.913-0.396,1.63c-0.025,0.731,0.076,1.285,0.304,1.666c0.228,0.382,0.54,0.577,0.938,0.593
	c0.318,0.011,0.593-0.105,0.825-0.348C68.083,124.18,68.219,123.885,68.262,123.538L68.262,123.538z"/>
<polygon fill="#FFFFFF" points="71.015,125.61 69.929,125.646 69.718,119.624 70.804,119.585 71.015,125.61 "/>
<polygon fill="#FFFFFF" points="76.11,125.182 72.208,125.522 71.684,119.52 75.546,119.18 75.625,120.073 72.844,120.318 
	72.986,121.944 75.221,121.75 75.297,122.619 73.063,122.814 73.208,124.495 76.028,124.249 76.11,125.182 "/>
<path fill="#FFFFFF" d="M81.316,124.312l-1.045-5.933l-0.842,0.147l0.727,4.136c-0.304-0.354-0.47-0.546-0.491-0.573l-2.695-3.13
	l-1.184,0.209l1.047,5.936l0.862-0.152l-0.766-4.348c0.093,0.113,0.164,0.194,0.208,0.245c0.101,0.117,0.175,0.201,0.218,0.254
	l2.923,3.393L81.316,124.312L81.316,124.312z"/>
<path fill="#FFFFFF" d="M85.171,121.044l0.997-0.188c0.113,0.593,0.035,1.139-0.234,1.626c-0.271,0.492-0.718,0.835-1.344,1.026
	c-0.526,0.159-0.992,0.157-1.402-0.008c-0.409-0.164-0.772-0.444-1.088-0.845c-0.316-0.397-0.556-0.871-0.724-1.417
	c-0.267-0.878-0.279-1.656-0.031-2.332c0.25-0.679,0.737-1.132,1.468-1.354c0.569-0.176,1.1-0.143,1.587,0.094
	c0.487,0.235,0.879,0.665,1.18,1.29l-0.932,0.396c-0.442-0.817-0.967-1.129-1.572-0.946c-0.388,0.121-0.635,0.393-0.741,0.819
	c-0.104,0.429-0.051,0.986,0.16,1.671c0.213,0.7,0.49,1.191,0.827,1.477c0.341,0.284,0.7,0.37,1.082,0.253
	c0.302-0.094,0.524-0.292,0.665-0.597C85.21,121.707,85.245,121.385,85.171,121.044L85.171,121.044z"/>
<polygon fill="#FFFFFF" points="91.101,121.062 90.75,120.193 88.125,121.255 87.493,119.69 89.574,118.851 89.244,118.041 
	87.166,118.88 86.556,117.366 89.143,116.321 88.806,115.488 85.212,116.941 87.468,122.529 91.101,121.062 "/>
<path fill="#FFFFFF" d="M94.248,112.71l-1.158,0.667l1.281,6.22l0.803-0.464l-0.31-1.478l2.006-1.158l1.137,1l1.004-0.579
	L94.248,112.71z M94.663,116.766l-0.583-2.767l2.104,1.89L94.663,116.766z"/>
<path fill="#FFFFFF" d="M103.25,113.925l-3.541-4.875l-0.692,0.504l2.468,3.396c-0.431-0.186-0.663-0.285-0.694-0.299l-3.794-1.63
	l-0.971,0.706l3.543,4.874l0.708-0.515l-2.596-3.571c0.133,0.058,0.234,0.101,0.295,0.128c0.144,0.063,0.246,0.105,0.308,0.133
	l4.114,1.771L103.25,113.925L103.25,113.925z"/>
<path fill="#FFFFFF" d="M105.919,107.773c-0.571-0.636-1.236-1.003-1.995-1.1c-0.758-0.1-1.443,0.124-2.053,0.674l-1.649,1.486
	l4.032,4.479l1.468-1.324c0.71-0.637,1.064-1.341,1.059-2.109C106.777,109.11,106.491,108.407,105.919,107.773z M105.163,111.299
	l-0.673,0.608l-2.866-3.185l0.768-0.692c0.361-0.323,0.788-0.433,1.281-0.329c0.493,0.107,0.934,0.376,1.33,0.814
	c0.482,0.536,0.72,1.052,0.712,1.551S105.524,110.975,105.163,111.299z"/>
<polygon fill="#FFFFFF" points="112.311,105.285 111.563,106.178 107.659,102.904 106.629,104.131 105.916,103.532 108.726,100.185 
	109.439,100.783 108.41,102.01 112.311,105.285 "/>
<polygon fill="#FFFFFF" points="115.977,100.445 115.201,99.923 113.62,102.269 112.222,101.327 113.475,99.467 112.75,98.979 
	111.496,100.838 110.143,99.923 111.703,97.61 110.96,97.107 108.792,100.322 113.787,103.694 115.977,100.445 "/>
<path fill="#FFFFFF" d="M116.513,95.824l0.628-0.794c0.476,0.375,0.774,0.837,0.891,1.383c0.119,0.548,0.006,1.1-0.341,1.653
	c-0.292,0.466-0.646,0.772-1.063,0.917c-0.416,0.144-0.874,0.169-1.375,0.074c-0.499-0.094-0.992-0.293-1.476-0.595
	c-0.778-0.486-1.296-1.067-1.554-1.741c-0.257-0.675-0.186-1.334,0.22-1.981c0.316-0.507,0.737-0.831,1.26-0.973
	c0.521-0.141,1.1-0.076,1.735,0.2l-0.443,0.911c-0.87-0.326-1.472-0.219-1.806,0.317c-0.216,0.344-0.224,0.714-0.021,1.104
	c0.201,0.391,0.606,0.778,1.214,1.158c0.62,0.387,1.15,0.577,1.593,0.569c0.446-0.008,0.772-0.179,0.983-0.517
	c0.169-0.271,0.205-0.565,0.113-0.887C116.977,96.3,116.792,96.035,116.513,95.824L116.513,95.824z"/>
<polygon fill="#FFFFFF" points="121.148,91.439 115.778,88.703 115.287,89.671 117.494,90.794 116.449,92.845 114.242,91.72 
	113.749,92.688 119.118,95.423 119.611,94.455 117.279,93.268 118.325,91.217 120.657,92.404 121.148,91.439 "/>
<path fill="#FFFFFF" d="M123.189,86.083l-0.378,0.984l-4.414,0.755c-0.066,0.012-0.176,0.031-0.328,0.059
	c-0.068,0.012-0.176,0.031-0.32,0.051l4.122,1.583l-0.314,0.819l-5.625-2.161l0.431-1.121l4.069-0.7
	c0.035-0.004,0.283-0.047,0.745-0.125l-3.921-1.505l0.308-0.8L123.189,86.083L123.189,86.083z"/>
<path fill="#FFFFFF" d="M123.847,80.736c-0.419-0.612-1.078-1.045-1.971-1.303c-0.852-0.243-1.625-0.23-2.316,0.047
	c-0.694,0.273-1.146,0.788-1.363,1.54c-0.214,0.745-0.103,1.428,0.333,2.048c0.437,0.616,1.076,1.047,1.921,1.289
	c0.848,0.243,1.622,0.235,2.322-0.029c0.7-0.262,1.162-0.78,1.382-1.549C124.369,82.029,124.268,81.349,123.847,80.736z
	 M123.316,82.53c-0.123,0.425-0.396,0.698-0.821,0.822c-0.427,0.125-0.991,0.086-1.687-0.112c-1.441-0.414-2.034-1.067-1.776-1.962
	c0.129-0.452,0.414-0.733,0.854-0.839c0.437-0.106,0.991-0.066,1.656,0.125c0.817,0.234,1.343,0.526,1.581,0.878
	C123.359,81.791,123.423,82.152,123.316,82.53z"/>
<polygon fill="#FFFFFF" points="125.393,75.693 124.814,79.355 118.861,78.412 119.04,77.285 124.02,78.072 124.422,75.538 
	125.393,75.693 "/>
<path fill="#FFFFFF" d="M125.058,71.045c-0.538-0.511-1.271-0.799-2.2-0.861c-0.883-0.063-1.636,0.113-2.256,0.526
	s-0.959,1.008-1.014,1.79c-0.053,0.772,0.197,1.42,0.754,1.933c0.554,0.513,1.27,0.801,2.145,0.861
	c0.881,0.061,1.636-0.107,2.268-0.511c0.628-0.403,0.973-1.004,1.029-1.804C125.837,72.203,125.596,71.561,125.058,71.045z
	 M124.279,73.887c-0.392,0.212-0.949,0.29-1.675,0.239c-1.494-0.105-2.209-0.62-2.143-1.548c0.031-0.47,0.251-0.804,0.659-0.998
	c0.408-0.195,0.956-0.27,1.646-0.223c0.85,0.059,1.425,0.236,1.729,0.53c0.304,0.293,0.442,0.632,0.415,1.021
	C124.88,73.351,124.669,73.678,124.279,73.887z"/>
<path fill="#FFFFFF" d="M122.671,65.028l3.081-0.109l0.018,0.483l-0.801,0.359c0.616,0.328,0.936,0.862,0.963,1.595
	c0.027,0.821-0.263,1.447-0.874,1.872c-0.608,0.425-1.324,0.655-2.145,0.682c-0.868,0.031-1.608-0.169-2.227-0.6
	s-0.942-1.051-0.969-1.864c-0.021-0.604,0.137-1.111,0.476-1.513c0.337-0.403,0.767-0.667,1.285-0.788l0.201,0.94
	c-0.729,0.201-1.08,0.636-1.059,1.303c0.016,0.427,0.201,0.768,0.558,1.025s0.897,0.375,1.617,0.347
	c1.521-0.051,2.264-0.556,2.23-1.507c-0.012-0.371-0.15-0.673-0.416-0.907s-0.608-0.343-1.027-0.328l0.043,1.244l-0.874,0.029
	L122.671,65.028L122.671,65.028z"/>
<polygon fill="#FFFFFF" points="125.44,61.764 122.92,62.117 119.2,60.668 119.344,61.702 121.996,62.712 119.734,64.475 
	119.917,65.777 123.081,63.258 125.6,62.905 "/>
<path fill="#FFFFFF" d="M162.583,121.964v-12.869h2.492v5.064h4.878v-5.064h2.488v12.869h-2.488v-5.627h-4.878v5.627H162.583
	L162.583,121.964z M175.001,109.095h2.488v6.969c0,1.108,0.033,1.825,0.094,2.153c0.105,0.526,0.361,0.951,0.76,1.268
	c0.402,0.321,0.95,0.479,1.644,0.479c0.708,0,1.242-0.15,1.601-0.452c0.359-0.301,0.573-0.671,0.646-1.108
	c0.074-0.44,0.109-1.17,0.109-2.188v-7.121h2.49v6.761c0,1.546-0.066,2.638-0.201,3.275c-0.137,0.638-0.382,1.176-0.745,1.616
	c-0.36,0.438-0.846,0.788-1.449,1.048c-0.606,0.261-1.4,0.39-2.375,0.39c-1.177,0-2.07-0.141-2.679-0.425
	c-0.608-0.285-1.088-0.653-1.441-1.105c-0.353-0.453-0.587-0.929-0.698-1.428c-0.164-0.737-0.244-1.825-0.244-3.268V109.095
	L175.001,109.095z M187.465,109.095h4.929c0.977,0,1.706,0.043,2.186,0.129c0.479,0.084,0.909,0.262,1.287,0.53
	c0.378,0.27,0.692,0.628,0.944,1.076c0.253,0.445,0.38,0.95,0.38,1.506c0,0.601-0.156,1.154-0.466,1.657
	c-0.312,0.505-0.735,0.882-1.266,1.135c0.749,0.227,1.33,0.616,1.731,1.166c0.403,0.55,0.606,1.197,0.606,1.942
	c0,0.583-0.131,1.152-0.392,1.708c-0.261,0.55-0.616,0.994-1.068,1.322c-0.449,0.331-1.008,0.534-1.671,0.612
	c-0.414,0.046-1.416,0.073-3.003,0.085h-4.198V109.095L187.465,109.095z M189.957,111.238v2.976h1.632
	c0.971,0,1.574-0.016,1.81-0.045c0.425-0.051,0.76-0.203,1.004-0.46c0.244-0.254,0.365-0.59,0.365-1.007
	c0-0.397-0.103-0.722-0.314-0.971c-0.21-0.25-0.524-0.397-0.938-0.448c-0.248-0.031-0.955-0.045-2.127-0.045H189.957
	L189.957,111.238z M189.957,116.356v3.439h2.303c0.899,0,1.468-0.023,1.71-0.078c0.371-0.07,0.671-0.241,0.905-0.511
	c0.232-0.273,0.349-0.64,0.349-1.096c0-0.386-0.092-0.714-0.269-0.982c-0.182-0.27-0.439-0.469-0.778-0.589
	c-0.339-0.125-1.078-0.184-2.209-0.184H189.957L189.957,116.356z M199.901,121.964v-12.869h9.143v2.181h-6.653v2.851h6.191v2.168
	h-6.191v3.502h6.887v2.168H199.901L199.901,121.964z M211.316,121.964v-12.869h2.488v12.869H211.316L211.316,121.964z
	 M224.776,109.095h2.49v6.969c0,1.108,0.031,1.825,0.092,2.153c0.105,0.526,0.36,0.951,0.76,1.268
	c0.402,0.321,0.952,0.479,1.646,0.479c0.706,0,1.24-0.15,1.599-0.452c0.359-0.301,0.575-0.671,0.646-1.108
	c0.076-0.44,0.109-1.17,0.109-2.188v-7.121h2.49v6.761c0,1.546-0.066,2.638-0.201,3.275c-0.134,0.638-0.382,1.176-0.745,1.616
	c-0.361,0.438-0.846,0.788-1.449,1.048c-0.606,0.261-1.398,0.39-2.375,0.39c-1.178,0-2.071-0.141-2.679-0.425
	c-0.608-0.285-1.088-0.653-1.441-1.105c-0.353-0.453-0.585-0.929-0.698-1.428c-0.164-0.737-0.244-1.825-0.244-3.268V109.095
	L224.776,109.095z M237.257,121.964v-12.869h2.423l5.048,8.596v-8.596h2.314v12.869h-2.501l-4.968-8.392v8.392H237.257
	L237.257,121.964z M249.599,121.964v-12.869h2.488v12.869H249.599L249.599,121.964z M257.607,121.964l-4.409-12.869h2.703
	l3.118,9.527l3.021-9.527h2.642l-4.417,12.869H257.607L257.607,121.964z M265.953,121.964v-12.869h9.143v2.181h-6.653v2.851h6.191
	v2.168h-6.191v3.502h6.889v2.168H265.953L265.953,121.964z M277.449,121.964v-12.869h5.243c1.318,0,2.275,0.117,2.872,0.348
	c0.597,0.229,1.077,0.642,1.435,1.232c0.359,0.593,0.539,1.267,0.539,2.027c0,0.966-0.273,1.767-0.817,2.395
	c-0.542,0.628-1.357,1.025-2.439,1.186c0.54,0.331,0.984,0.69,1.333,1.084c0.351,0.393,0.823,1.088,1.417,2.089l1.507,2.509h-2.978
	l-1.801-2.8c-0.64-1.002-1.077-1.63-1.313-1.892c-0.234-0.261-0.483-0.437-0.749-0.536c-0.265-0.096-0.681-0.142-1.254-0.142h-0.503
	v5.369H277.449L277.449,121.964z M279.943,114.537h1.84c1.193,0,1.94-0.051,2.239-0.156c0.296-0.105,0.528-0.286,0.698-0.544
	c0.168-0.259,0.253-0.579,0.253-0.967c0-0.433-0.113-0.78-0.333-1.049c-0.221-0.266-0.535-0.434-0.94-0.505
	c-0.201-0.027-0.807-0.041-1.817-0.041h-1.94V114.537L279.943,114.537z M289.254,117.779l2.423-0.249
	c0.145,0.853,0.441,1.474,0.887,1.872c0.445,0.397,1.045,0.597,1.804,0.597c0.802,0,1.408-0.176,1.812-0.532
	c0.408-0.354,0.612-0.767,0.612-1.242c0-0.305-0.086-0.562-0.259-0.776c-0.168-0.215-0.468-0.401-0.895-0.556
	c-0.291-0.107-0.958-0.295-1.993-0.563c-1.336-0.343-2.271-0.771-2.808-1.275c-0.758-0.706-1.137-1.567-1.137-2.587
	c0-0.657,0.178-1.27,0.532-1.839c0.357-0.569,0.872-1.007,1.539-1.305c0.673-0.298,1.48-0.446,2.428-0.446
	c1.55,0,2.714,0.353,3.498,1.061c0.78,0.71,1.191,1.653,1.232,2.837l-2.49,0.115c-0.107-0.663-0.337-1.139-0.686-1.428
	c-0.351-0.29-0.875-0.435-1.578-0.435c-0.724,0-1.291,0.154-1.698,0.466c-0.265,0.197-0.398,0.464-0.398,0.796
	c0,0.306,0.125,0.565,0.371,0.782c0.314,0.276,1.076,0.563,2.289,0.859c1.211,0.301,2.108,0.608,2.687,0.929
	c0.581,0.319,1.035,0.752,1.365,1.308c0.328,0.554,0.491,1.238,0.491,2.05c0,0.736-0.197,1.431-0.589,2.07
	c-0.394,0.644-0.947,1.123-1.665,1.436c-0.717,0.315-1.614,0.472-2.685,0.472c-1.56,0-2.757-0.374-3.593-1.127
	C289.915,120.314,289.416,119.219,289.254,117.779L289.254,117.779z M301.3,121.964v-12.869h2.49v12.869H301.3L301.3,121.964z
	 M308.938,121.964v-10.688h-3.658v-2.181h9.799v2.181h-3.649v10.688H308.938L308.938,121.964z M319.922,121.964v-5.416l-4.516-7.453
	h2.921l2.901,5.092l2.843-5.092h2.87l-4.535,7.473v5.396H319.922L319.922,121.964z M369.656,117.779l2.426-0.249
	c0.144,0.853,0.44,1.474,0.885,1.872c0.448,0.397,1.045,0.597,1.806,0.597c0.8,0,1.404-0.176,1.81-0.532
	c0.409-0.354,0.612-0.767,0.612-1.242c0-0.305-0.086-0.562-0.258-0.776c-0.167-0.215-0.468-0.401-0.896-0.556
	c-0.289-0.107-0.956-0.295-1.993-0.563c-1.333-0.343-2.27-0.771-2.808-1.275c-0.757-0.706-1.135-1.567-1.135-2.587
	c0-0.657,0.176-1.27,0.53-1.839c0.359-0.569,0.874-1.007,1.54-1.305c0.671-0.298,1.479-0.446,2.426-0.446
	c1.553,0,2.715,0.353,3.498,1.061c0.78,0.71,1.193,1.653,1.232,2.837l-2.487,0.115c-0.109-0.663-0.34-1.139-0.687-1.428
	c-0.352-0.29-0.878-0.435-1.58-0.435c-0.721,0-1.29,0.154-1.696,0.466c-0.265,0.197-0.397,0.464-0.397,0.796
	c0,0.306,0.125,0.565,0.37,0.782c0.313,0.276,1.076,0.563,2.289,0.859c1.209,0.301,2.106,0.608,2.688,0.929
	c0.581,0.319,1.033,0.752,1.364,1.308c0.328,0.554,0.492,1.238,0.492,2.05c0,0.736-0.195,1.431-0.589,2.07
	c-0.395,0.644-0.948,1.123-1.666,1.436c-0.721,0.315-1.614,0.472-2.687,0.472c-1.56,0-2.757-0.374-3.592-1.127
	C370.319,120.314,369.82,119.219,369.656,117.779L369.656,117.779z M389.669,117.233l2.413,0.798
	c-0.37,1.406-0.986,2.447-1.848,3.132c-0.858,0.681-1.95,1.021-3.276,1.021c-1.634,0-2.983-0.583-4.036-1.749
	c-1.053-1.17-1.583-2.767-1.583-4.789c0-2.145,0.53-3.806,1.591-4.993c1.061-1.184,2.453-1.776,4.181-1.776
	c1.509,0,2.733,0.464,3.678,1.396c0.562,0.548,0.982,1.34,1.263,2.371l-2.468,0.614c-0.145-0.669-0.449-1.195-0.913-1.583
	c-0.46-0.386-1.025-0.579-1.685-0.579c-0.912,0-1.657,0.343-2.227,1.029c-0.569,0.683-0.851,1.792-0.851,3.326
	c0,1.627,0.277,2.787,0.839,3.476c0.562,0.693,1.291,1.037,2.188,1.037c0.663,0,1.232-0.219,1.708-0.659
	C389.119,118.868,389.462,118.174,389.669,117.233L389.669,117.233z M394.146,121.964v-12.869h2.488v12.869H394.146L394.146,121.964
	z M410.65,122.284v-12.869h2.422l5.05,8.595v-8.595h2.313v12.869h-2.5l-4.972-8.393v8.393H410.65L410.65,122.284z M399.718,121.964
	v-12.869h9.146v2.181h-6.653v2.851h6.189v2.168h-6.189v3.502h6.887v2.168H399.718L399.718,121.964z M430.83,117.233l2.414,0.798
	c-0.371,1.406-0.986,2.447-1.85,3.132c-0.857,0.681-1.953,1.021-3.275,1.021c-1.637,0-2.982-0.583-4.035-1.749
	c-1.055-1.17-1.583-2.767-1.583-4.789c0-2.145,0.528-3.806,1.591-4.993c1.061-1.184,2.451-1.776,4.18-1.776
	c1.51,0,2.734,0.464,3.678,1.396c0.561,0.548,0.979,1.34,1.26,2.371l-2.465,0.614c-0.145-0.669-0.449-1.195-0.912-1.583
	c-0.465-0.386-1.025-0.579-1.686-0.579c-0.912,0-1.658,0.343-2.227,1.029c-0.57,0.683-0.854,1.792-0.854,3.326
	c0,1.627,0.279,2.787,0.842,3.476c0.563,0.693,1.291,1.037,2.184,1.037c0.668,0,1.232-0.219,1.709-0.659
	C430.279,118.868,430.619,118.174,430.83,117.233L430.83,117.233z M435.381,121.964v-12.869h9.145v2.181h-6.652v2.851h6.188v2.168
	h-6.188v3.502h6.887v2.168H435.381L435.381,121.964z M466.605,121.964h-2.711l-1.076-2.925h-4.928l-1.02,2.925h-2.639l4.805-12.869
	h2.631L466.605,121.964L466.605,121.964z M462.02,116.875l-1.695-4.777l-1.666,4.777H462.02L462.02,116.875z M467.951,121.964
	v-12.869h2.422l5.051,8.596v-8.596h2.313v12.869h-2.5l-4.973-8.392v8.392H467.951L467.951,121.964z M480.359,109.095h4.553
	c1.025,0,1.805,0.082,2.346,0.246c0.723,0.223,1.342,0.616,1.857,1.186c0.518,0.567,0.912,1.264,1.182,2.082
	c0.266,0.827,0.402,1.839,0.402,3.046c0,1.057-0.129,1.974-0.379,2.739c-0.309,0.935-0.748,1.693-1.322,2.272
	c-0.43,0.44-1.014,0.781-1.746,1.027c-0.551,0.182-1.287,0.271-2.209,0.271h-4.684V109.095L480.359,109.095z M482.852,111.275v8.521
	h1.857c0.693,0,1.197-0.039,1.508-0.123c0.402-0.105,0.738-0.282,1.004-0.532c0.268-0.253,0.482-0.671,0.65-1.244
	c0.168-0.577,0.254-1.364,0.254-2.359c0-0.994-0.086-1.755-0.254-2.289s-0.402-0.951-0.705-1.248
	c-0.305-0.298-0.688-0.499-1.154-0.604c-0.348-0.083-1.027-0.12-2.045-0.12H482.852L482.852,111.275z M500.369,121.964v-10.688
	h-3.654v-2.181h9.797v2.181h-3.646v10.688H500.369L500.369,121.964z M508.123,121.964v-12.869h9.141v2.181h-6.652v2.851h6.191v2.168
	h-6.191v3.502h6.887v2.168H508.123L508.123,121.964z M527.504,117.233l2.41,0.798c-0.371,1.406-0.982,2.447-1.844,3.132
	c-0.863,0.681-1.955,1.021-3.277,1.021c-1.637,0-2.982-0.583-4.039-1.749c-1.053-1.17-1.58-2.767-1.58-4.789
	c0-2.145,0.531-3.806,1.592-4.993c1.057-1.184,2.449-1.776,4.18-1.776c1.506,0,2.73,0.464,3.674,1.396
	c0.563,0.548,0.982,1.34,1.264,2.371l-2.465,0.614c-0.145-0.669-0.447-1.195-0.916-1.583c-0.461-0.386-1.021-0.579-1.686-0.579
	c-0.912,0-1.656,0.343-2.223,1.029c-0.568,0.683-0.854,1.792-0.854,3.326c0,1.627,0.277,2.787,0.842,3.476
	c0.559,0.693,1.287,1.037,2.184,1.037c0.664,0,1.232-0.219,1.709-0.659C526.951,118.868,527.293,118.174,527.504,117.233
	L527.504,117.233z M532.059,121.964v-12.869h2.492v5.064h4.879v-5.064h2.492v12.869h-2.492v-5.627h-4.879v5.627H532.059
	L532.059,121.964z M544.518,121.964v-12.869h2.422l5.051,8.596v-8.596h2.313v12.869h-2.5l-4.967-8.392v8.392H544.518
	L544.518,121.964z M556.432,115.609c0-1.313,0.188-2.412,0.563-3.301c0.281-0.655,0.662-1.244,1.15-1.767
	c0.482-0.519,1.014-0.905,1.59-1.156c0.773-0.342,1.658-0.509,2.66-0.509c1.818,0,3.271,0.587,4.363,1.765
	c1.09,1.176,1.635,2.81,1.635,4.905c0,2.081-0.541,3.703-1.623,4.879c-1.084,1.172-2.529,1.759-4.34,1.759
	c-1.836,0-3.295-0.583-4.375-1.749C556.971,119.266,556.432,117.655,556.432,115.609L556.432,115.609z M558.994,115.521
	c0,1.459,0.328,2.563,0.967,3.315c0.648,0.752,1.467,1.127,2.461,1.127c0.99,0,1.807-0.371,2.441-1.119
	c0.637-0.747,0.955-1.864,0.955-3.358c0-1.474-0.311-2.573-0.928-3.303c-0.619-0.726-1.443-1.088-2.469-1.088
	c-1.029,0-1.855,0.37-2.484,1.104C559.311,112.933,558.994,114.04,558.994,115.521L558.994,115.521z M570.404,121.964V109.2h2.488
	v10.596h6.189v2.168H570.404L570.404,121.964z M580.357,115.609c0-1.313,0.188-2.412,0.561-3.301
	c0.281-0.655,0.664-1.244,1.15-1.767c0.484-0.519,1.014-0.905,1.592-1.156c0.768-0.342,1.654-0.509,2.66-0.509
	c1.816,0,3.271,0.587,4.359,1.765c1.092,1.176,1.639,2.81,1.639,4.905c0,2.081-0.543,3.703-1.627,4.879
	c-1.08,1.172-2.527,1.759-4.336,1.759c-1.838,0-3.295-0.583-4.377-1.749C580.895,119.266,580.357,117.655,580.357,115.609
	L580.357,115.609z M582.92,115.521c0,1.459,0.322,2.563,0.967,3.315c0.646,0.752,1.467,1.127,2.461,1.127
	c0.99,0,1.805-0.371,2.441-1.119c0.635-0.747,0.955-1.864,0.955-3.358c0-1.474-0.313-2.573-0.928-3.303
	c-0.621-0.726-1.447-1.088-2.469-1.088c-1.029,0-1.857,0.37-2.484,1.104C583.234,112.933,582.92,114.04,582.92,115.521
	L582.92,115.521z M600,117.233v-2.168h5.365v5.126c-0.521,0.529-1.277,0.993-2.27,1.395c-0.99,0.397-1.992,0.599-3.006,0.599
	c-1.287,0-2.414-0.283-3.373-0.845c-0.959-0.567-1.682-1.372-2.16-2.425c-0.484-1.052-0.727-2.194-0.727-3.429
	c0-1.339,0.27-2.53,0.809-3.575c0.537-1.04,1.324-1.839,2.367-2.395c0.787-0.428,1.773-0.64,2.951-0.64
	c1.529,0,2.727,0.335,3.584,1.002c0.861,0.673,1.416,1.599,1.666,2.782l-2.473,0.481c-0.176-0.631-0.504-1.131-0.982-1.497
	c-0.48-0.366-1.078-0.55-1.795-0.55c-1.088,0-1.953,0.36-2.598,1.08c-0.643,0.722-0.963,1.79-0.963,3.206
	c0,1.524,0.328,2.673,0.979,3.438c0.648,0.764,1.502,1.145,2.555,1.145c0.523,0,1.045-0.107,1.572-0.32
	c0.521-0.214,0.971-0.474,1.35-0.775v-1.635H600L600,117.233z M610.9,121.964v-5.416l-4.52-7.453h2.92l2.906,5.092l2.842-5.092
	h2.867l-4.535,7.473v5.396H610.9z"/>
<path fill="#FFFFFF" d="M336.286,115.609c0-1.313,0.188-2.412,0.565-3.301c0.28-0.655,0.663-1.244,1.146-1.767
	c0.487-0.519,1.018-0.905,1.595-1.156c0.769-0.342,1.653-0.509,2.66-0.509c1.817,0,3.268,0.587,4.359,1.765
	c1.092,1.176,1.638,2.81,1.638,4.905c0,2.081-0.542,3.703-1.626,4.879c-1.084,1.172-2.53,1.759-4.34,1.759
	c-1.833,0-3.292-0.583-4.376-1.749C336.828,119.266,336.286,117.655,336.286,115.609L336.286,115.609z M338.851,115.521
	c0,1.459,0.324,2.563,0.968,3.315c0.647,0.752,1.466,1.127,2.457,1.127c0.99,0,1.806-0.371,2.444-1.119
	c0.632-0.747,0.952-1.864,0.952-3.358c0-1.474-0.309-2.573-0.929-3.303c-0.619-0.726-1.442-1.088-2.468-1.088
	c-1.026,0-1.856,0.37-2.484,1.104C339.167,112.933,338.851,114.04,338.851,115.521L338.851,115.521z M350.208,121.964v-12.869h8.455
	v2.181H352.7v3.041h5.147v2.181H352.7v5.467H350.208z"/>
</svg>
